<?xml version="1.0" encoding="UTF-8"?>
<!DOCTYPE svg PUBLIC "-//W3C//DTD SVG 1.0//EN" "http://www.w3.org/TR/2001/REC-SVG-20010904/DTD/svg10.dtd">
<!-- Creator: CorelDRAW 2018 (64 Bit Versão de avaliação) -->
<svg xmlns="http://www.w3.org/2000/svg" xml:space="preserve" width="305px" height="228px" version="1.0" style="shape-rendering:geometricPrecision; text-rendering:geometricPrecision; image-rendering:optimizeQuality; fill-rule:evenodd; clip-rule:evenodd"
viewBox="0 0 116.778 87.323"
 xmlns:xlink="http://www.w3.org/1999/xlink">
 <defs>
  <style type="text/css">
   <![CDATA[
    .fil3 {fill:#FABD49}
    .fil4 {fill:white}
    .fil1 {fill:#FABD49;fill-rule:nonzero}
    .fil0 {fill:white;fill-rule:nonzero}
    .fil2 {fill:white;fill-rule:nonzero}
   ]]>
  </style>
 </defs>
 <g id="Camada_x0020_1">
  <metadata id="CorelCorpID_0Corel-Layer"/>
  <g id="_2261050445376">
   <path class="fil0" d="M7.088 23.056l-0.207 0c-1.927,0 -3.587,0.628 -4.938,1.867 -1.289,1.242 -1.943,2.751 -1.943,4.485 0,1.748 0.654,3.27 1.943,4.491 1.345,1.228 3.008,1.851 4.938,1.851 1.915,0 3.577,-0.628 4.944,-1.862 1.273,-1.212 2.091,-2.928 1.903,-5.282l-0.018 -0.243 -7.239 0 0 2.764 3.58 0c-0.609,0.871 -1.766,1.557 -3.146,1.557 -1.046,0 -1.909,-0.315 -2.634,-0.964 -0.739,-0.649 -1.099,-1.406 -1.099,-2.312 0,-0.905 0.36,-1.662 1.099,-2.306 0.733,-0.648 1.596,-0.964 2.634,-0.964 1.014,0 1.883,0.342 2.637,1.046l0.204 0.188 2.291 -2.173 -0.197 -0.191c-1.109,-1.027 -2.737,-1.872 -4.744,-1.925l-0.008 -0.027zm12.51 6.524l0.8 1.692 -1.61 0 0.81 -1.692zm-3.09 6.074l0.93 -1.893 4.308 0 0.926 1.893 3.318 0 -6.037 -12.481 -0.723 0 -6.031 12.481 3.309 0zm13.62 0l0 -4.885 3.725 4.885 3.713 0 -3.003 -4.485c0.585,-0.265 0.919,-0.537 1.316,-1.072 0.556,-0.752 0.842,-1.57 0.842,-2.433l0 -0.313c0,-1.403 -0.5,-2.147 -1.289,-2.904 -0.464,-0.437 -0.999,-0.763 -1.61,-0.978 -0.705,-0.211 -1.435,-0.317 -2.182,-0.317l-4.57 0 0.008 12.502 3.05 0zm1.795 -6.553l-0.667 0 0 -0.008 -1.136 0 0 -2.907 1.337 0c0.572,0 1.271,0.148 1.597,0.416 0.331,0.296 0.49,0.625 0.49,1.009 0,0.863 -0.781,1.49 -1.621,1.49zm12.357 0.479l0.8 1.692 -1.61 0 0.81 -1.692zm-3.09 6.074l0.93 -1.893 4.307 0 0.927 1.893 3.318 0 -6.037 -12.481 -0.723 0 -6.031 12.481 3.309 0zm10.57 -12.534l0 12.534 3.145 0 0 -6.563 7.3 6.563 0.689 0 0 -12.534 -3.156 0 0 6.58 -7.316 -6.58 -0.662 0zm12.227 3.066l3.196 0 0.032 9.468 3.447 0 -0.111 -9.468 3.188 0 0 -3.034 -9.752 0 0 3.034zm13.893 9.468l0 -12.502 -3.05 0 0 12.502 3.05 0zm1.557 -12.534l0 12.534 3.05 0 0 -4.617 3.619 4.607 3.609 -4.605 0 4.615 3.05 0 0 -12.534 -0.627 0 -6.032 7.946 -6.042 -7.946 -0.627 0zm16.365 1.806c-1.289,1.247 -1.94,2.754 -1.94,4.488 0,1.739 0.651,3.243 1.943,4.477 1.356,1.218 2.783,1.837 4.705,1.843 1.92,0 3.347,-0.62 4.708,-1.843 1.297,-1.229 1.954,-2.732 1.954,-4.477 0,-1.74 -0.657,-3.246 -1.952,-4.488 -1.369,-1.239 -2.796,-1.87 -4.71,-1.87 -1.912,0 -3.339,0.631 -4.708,1.87zm7.109 2.168c0.742,0.649 1.105,1.404 1.105,2.304 0,0.911 -0.363,1.665 -1.105,2.303 -0.741,0.641 -1.374,0.951 -2.401,0.951 -1.043,0 -1.676,-0.31 -2.407,-0.948 -0.739,-0.643 -1.096,-1.401 -1.096,-2.306 0,-0.895 0.357,-1.652 1.096,-2.306 0.726,-0.641 1.358,-0.954 2.407,-0.954 1.033,0 1.665,0.313 2.401,0.956zm7.999 4.271l-3.188 0.651 0.04 0.247c0.304,1.999 2.198,3.502 4.485,3.502 2.494,0 4.531,-1.712 4.531,-3.86 0,-1.8 -1.518,-3.013 -3.3,-3.463 -1.059,-0.27 -2.34,-0.535 -2.34,-1.361 0,-0.527 0.514,-0.958 1.12,-0.958 0.792,0 1.107,0.556 1.107,1.326l3.211 -0.649 -0.034 -0.243c-0.275,-1.978 -2.012,-3.501 -4.303,-3.501 -2.507,0 -4.342,1.721 -4.342,3.853 0,1.758 1.456,3.018 3.188,3.532 1.112,0.328 2.468,0.456 2.468,1.284 0,0.485 -0.684,0.959 -1.327,0.959l-0.161 0 -0.003 0c-0.598,-0.077 -1.152,-0.53 -1.152,-0.993l0 -0.326zm-108.106 10.797c-1.29,1.247 -1.941,2.754 -1.941,4.488 0,1.74 0.651,3.244 1.943,4.477 1.356,1.218 2.783,1.838 4.705,1.843 1.92,0 3.347,-0.619 4.708,-1.843 1.297,-1.228 1.954,-2.732 1.954,-4.477 0,-1.739 -0.657,-3.246 -1.951,-4.488 -1.369,-1.239 -2.796,-1.869 -4.711,-1.869 -1.911,0 -3.338,0.63 -4.707,1.869zm7.109 2.169c0.741,0.648 1.104,1.403 1.104,2.303 0,0.911 -0.363,1.666 -1.104,2.304 -0.742,0.64 -1.374,0.95 -2.402,0.95 -1.043,0 -1.676,-0.31 -2.407,-0.948 -0.738,-0.643 -1.096,-1.4 -1.096,-2.306 0,-0.895 0.358,-1.652 1.096,-2.306 0.726,-0.641 1.359,-0.953 2.407,-0.953 1.033,0 1.666,0.312 2.402,0.956zm16.863 -4.038l-0.373 0c-1.933,0 -3.612,0.627 -4.999,1.867 -1.292,1.241 -1.944,2.748 -1.944,4.482 0,1.74 0.652,3.244 1.946,4.48 1.375,1.223 3.053,1.843 4.997,1.848 0.985,0 1.903,-0.169 2.756,-0.511 0.839,-0.349 1.546,-0.821 2.145,-1.414l0.193 -0.193 -2.195 -2.174 -0.206 0.191c-0.747,0.696 -1.626,1.035 -2.685,1.035 -1.051,0 -1.928,-0.31 -2.666,-0.948 -0.747,-0.643 -1.112,-1.401 -1.112,-2.306 0,-0.895 0.365,-1.652 1.112,-2.306 0.736,-0.641 1.609,-0.953 2.666,-0.953 1.04,0 1.919,0.339 2.679,1.035l0.204 0.191 2.198 -2.174 -0.199 -0.193c-1.059,-1.017 -2.597,-1.827 -4.527,-1.917l0.01 -0.04zm6.328 1.869c-1.289,1.247 -1.941,2.754 -1.941,4.488 0,1.74 0.652,3.244 1.944,4.477 1.356,1.218 2.783,1.838 4.705,1.843 1.919,0 3.347,-0.619 4.708,-1.843 1.297,-1.228 1.954,-2.732 1.954,-4.477 0,-1.739 -0.657,-3.246 -1.952,-4.488 -1.369,-1.239 -2.796,-1.869 -4.71,-1.869 -1.912,0 -3.339,0.63 -4.708,1.869zm7.109 2.169c0.742,0.648 1.104,1.403 1.104,2.303 0,0.911 -0.362,1.666 -1.104,2.304 -0.741,0.64 -1.374,0.95 -2.401,0.95 -1.043,0 -1.676,-0.31 -2.407,-0.948 -0.739,-0.643 -1.096,-1.4 -1.096,-2.306 0,-0.895 0.357,-1.652 1.096,-2.306 0.726,-0.641 1.358,-0.953 2.407,-0.953 1.032,0 1.665,0.312 2.401,0.956zm5.351 -3.975l0 12.535 3.146 0 0 -6.564 7.3 6.564 0.688 0 0 -12.535 -3.156 0 0 6.58 -7.316 -6.58 -0.662 0zm12.228 3.067l3.195 0 0.032 9.468 3.448 0 -0.112 -9.468 3.188 0 0 -3.035 -9.751 0 0 3.035zm10.845 9.483l8.626 0 0 -3.034 -5.423 0 0 -1.715 4.168 0 0 -3.051 -4.168 0 0 -1.699 5.423 0 0 -3.051 -8.626 0 0 12.55zm13.27 -14.083l1.403 0.988 3.199 -2.751 -2.089 -1.522 -2.513 3.285zm1.88 11.081c-1.258,0 -2.425,-0.897 -2.425,-2.121l0 -7.427 -3.172 0 0 7.533c0,1.414 0.527,2.629 1.562,3.612 1.083,0.985 2.454,1.485 4.043,1.485 1.586,0 2.955,-0.503 4.032,-1.485 1.033,-0.98 1.56,-2.198 1.56,-3.612l0 -7.533 -3.162 0 0 7.427c0,1.221 -1.199,2.121 -2.438,2.121zm6.993 -9.5l0 12.487 3.593 0c2.327,0 4.31,-0.614 5.854,-1.83 1.17,-1.12 1.752,-2.605 1.752,-4.411 0,-1.806 -0.579,-3.294 -1.752,-4.419 -1.247,-1.088 -3.095,-1.835 -5.312,-1.835l-0.27 0 0 0.008 -3.865 0zm8.022 6.227c-0.283,2.114 -1.848,3.21 -4.334,3.21l-0.336 0 -0.029 -6.418 0.804 0c2.195,0 3.895,1.127 3.895,3.208zm5.746 -4.469c-1.29,1.247 -1.941,2.754 -1.941,4.488 0,1.74 0.651,3.244 1.943,4.477 1.356,1.218 2.783,1.838 4.705,1.843 1.92,0 3.347,-0.619 4.708,-1.843 1.297,-1.228 1.954,-2.732 1.954,-4.477 0,-1.739 -0.657,-3.246 -1.951,-4.488 -1.369,-1.239 -2.796,-1.869 -4.711,-1.869 -1.911,0 -3.338,0.63 -4.707,1.869zm7.109 2.169c0.741,0.648 1.104,1.403 1.104,2.303 0,0.911 -0.363,1.666 -1.104,2.304 -0.742,0.64 -1.374,0.95 -2.402,0.95 -1.043,0 -1.676,-0.31 -2.406,-0.948 -0.739,-0.643 -1.097,-1.4 -1.097,-2.306 0,-0.895 0.358,-1.652 1.097,-2.306 0.725,-0.641 1.358,-0.953 2.406,-0.953 1.033,0 1.666,0.312 2.402,0.956z"/>
   <g>
    <path class="fil1" d="M13.605 61.098c0,2.605 1.941,4.634 4.646,4.634 1.24,0 3.519,-0.426 3.519,-1.753l0 -1.215 -1.49 0 0 0.689c0,0.701 -1.39,0.877 -1.929,0.877 -1.753,0 -3.056,-1.315 -3.056,-3.307 0,-1.866 1.265,-3.08 2.968,-3.08 0.739,0 1.904,0.225 1.904,0.889l0 0.689 1.49 0 0 -1.203c0,-1.402 -2.392,-1.778 -3.469,-1.778 -2.58,0 -4.583,1.928 -4.583,4.558l0 0zm9.417 4.484l6.788 0 0 -2.317 -1.403 0 0 1.002 -2.68 0 0 -2.505 2.931 0 0 -1.315 -2.931 0 0 -2.442 2.493 0 0 0.977 1.402 0 0 -2.292 -6.6 0 0 1.24 1.065 0 0 6.425 -1.065 0 0 1.227zm8.015 0l3.732 0 0 -1.227 -1.026 0 0 -2.179 0.814 0c0.513,0 0.676,0.112 0.864,0.45l1.265 2.292c0.275,0.514 0.513,0.664 1.239,0.664l1.04 0 0 -1.227 -0.288 0c-0.301,0 -0.464,-0.05 -0.601,-0.288l-1.027 -1.854c-0.088,-0.163 -0.201,-0.263 -0.288,-0.351l-0.151 -0.112 0 -0.025c1.04,-0.351 1.678,-1.215 1.678,-2.467 0,-1.253 -0.638,-2.042 -1.64,-2.38 -0.501,-0.15 -1.04,-0.188 -1.691,-0.188l-3.92 0 0 1.24 1.065 0 0 6.425 -1.065 0 0 1.227zm2.706 -4.721l0 -2.856 1.202 0c0.425,0 0.764,0.05 1.002,0.163 0.488,0.2 0.701,0.639 0.701,1.227 0,0.952 -0.564,1.466 -1.428,1.466l-1.477 0zm7.864 4.721l3.782 0 0 -1.227 -1.077 0 0 -6.35 1.691 0 0 1.34 1.39 0 0 -2.655 -7.789 0 0 2.655 1.39 0 0 -1.34 1.678 0 0 6.35 -1.065 0 0 1.227zm6.751 0l3.781 0 0 -1.227 -1.076 0 0 -6.425 1.076 0 0 -1.24 -3.781 0 0 1.24 1.064 0 0 6.425 -1.064 0 0 1.227zm5.047 0l3.882 0 0 -1.227 -1.177 0 0 -2.405 2.892 0 0 -1.315 -2.892 0 0 -2.555 2.241 0 0 0.915 1.403 0 0 -2.305 -6.349 0 0 1.24 1.064 0 0 6.425 -1.064 0 0 1.227zm7.363 0l3.782 0 0 -1.227 -1.077 0 0 -6.425 1.077 0 0 -1.24 -3.782 0 0 1.24 1.065 0 0 6.425 -1.065 0 0 1.227zm4.96 -4.484c0,2.605 1.941,4.634 4.646,4.634 1.24,0 3.519,-0.426 3.519,-1.753l0 -1.215 -1.49 0 0 0.689c0,0.701 -1.39,0.877 -1.929,0.877 -1.753,0 -3.056,-1.315 -3.056,-3.307 0,-1.866 1.265,-3.08 2.968,-3.08 0.739,0 1.904,0.225 1.904,0.889l0 0.689 1.49 0 0 -1.203c0,-1.402 -2.392,-1.778 -3.469,-1.778 -2.58,0 -4.583,1.928 -4.583,4.558l0 0zm8.941 4.484l3.332 0 0 -1.227 -0.877 0 0.551 -1.666 2.805 0 0.551 1.666 -0.876 0 0 1.227 3.344 0 0 -1.227 -0.815 0 -2.667 -7.665 -1.866 0 -2.668 7.665 -0.814 0 0 1.227zm3.382 -4.17l0.851 -2.518c0.063,-0.238 0.088,-0.413 0.125,-0.551l0.038 -0.225 0.038 0c0,0.062 0.012,0.138 0.025,0.225l0.138 0.551 0.839 2.518 -2.054 0zm6.224 4.17l3.857 0c0.751,0 1.365,-0.05 1.966,-0.263 1.703,-0.564 2.755,-2.067 2.755,-4.183 0,-2.179 -1.139,-3.732 -2.88,-4.233 -0.589,-0.188 -1.14,-0.213 -1.854,-0.213l-3.844 0 0 1.24 1.064 0 0 6.425 -1.064 0 0 1.227zm2.705 -1.315l0 -6.262 1.077 0c0.538,0 0.939,0.013 1.39,0.201 1.052,0.4 1.716,1.415 1.716,2.93 0,1.465 -0.639,2.492 -1.653,2.906 -0.439,0.187 -0.89,0.225 -1.453,0.225l-1.077 0zm6.976 -3.194c0,2.618 1.978,4.659 4.608,4.659 2.63,0 4.609,-2.041 4.609,-4.659 0,-2.542 -1.979,-4.533 -4.609,-4.533 -2.63,0 -4.608,1.991 -4.608,4.533zm1.69 0c0,-1.753 1.315,-3.093 2.918,-3.093 1.603,0 2.918,1.34 2.918,3.093 0,1.841 -1.315,3.219 -2.918,3.219 -1.603,0 -2.918,-1.378 -2.918,-3.219z"/>
    <path class="fil2" d="M41.526 78.516l4.702 0 0 -1.887 -1.03 0 0.246 -3.729c0.015,-0.218 0,-0.508 -0.014,-0.741l-0.044 -0.42 0.058 0c0.015,0.13 0.044,0.261 0.073,0.391 0.043,0.218 0.13,0.494 0.203,0.712l1.364 3.787 2.177 0 1.364 -3.787c0.102,-0.218 0.16,-0.494 0.203,-0.712 0.03,-0.13 0.059,-0.261 0.073,-0.391l0.058 0 -0.043 0.42c-0.015,0.233 -0.029,0.523 -0.015,0.741l0.247 3.729 -1.031 0 0 1.887 4.703 0 0 -1.887 -1.132 0 -0.552 -6.603 1.161 0 0 -1.887 -4.078 0 -1.742 5.138c-0.101,0.334 -0.188,0.581 -0.232,0.769 -0.029,0.102 -0.043,0.203 -0.058,0.305l-0.029 0c-0.014,-0.102 -0.029,-0.203 -0.058,-0.305 -0.043,-0.188 -0.116,-0.435 -0.232,-0.769l-1.742 -5.138 -4.078 0 0 1.887 1.161 0 -0.551 6.603 -1.132 0 0 1.887zm14.513 0l8.17 0 0 -3.062 -2.176 0 0 1.03 -2.236 0 0 -2.177 3.034 0 0 -2.031 -3.034 0 0 -2.105 2.061 0 0 1.031 2.177 0 0 -3.063 -7.996 0 0 1.887 1.161 0 0 6.603 -1.161 0 0 1.887zm9.346 -5.21c0,3.033 2.322,5.384 5.5,5.384 1.437,0 4.238,-0.464 4.238,-2.046l0 -1.669 -2.322 0 0 0.798c0,0.624 -1.263,0.74 -1.727,0.74 -1.727,0 -3.004,-1.204 -3.004,-3.352 0,-1.916 1.175,-3.019 2.859,-3.019 0.697,0 1.756,0.16 1.756,0.74l0 0.799 2.322 0 0 -1.64c0,-1.684 -2.932,-2.076 -4.194,-2.076 -3.033,0 -5.428,2.25 -5.428,5.341z"/>
   </g>
   <g>
    <polygon class="fil3" points="58.389,6.075 60.007,9.657 63.809,10.013 60.902,12.659 61.738,16.386 58.324,14.439 55.039,16.386 55.835,12.536 52.968,10.013 56.875,9.581 "/>
    <polygon class="fil3" points="48.549,9.226 49.672,11.713 52.313,11.961 50.294,13.798 50.875,16.386 48.504,15.034 46.223,16.386 46.775,13.713 44.785,11.961 47.498,11.661 "/>
    <polygon class="fil3" points="68.228,9.226 69.352,11.713 71.992,11.961 69.974,13.798 70.555,16.386 68.184,15.034 65.902,16.386 66.455,13.713 64.465,11.961 67.177,11.661 "/>
    <polygon class="fil3" points="41.039,10.507 41.961,12.549 44.129,12.752 42.472,14.261 42.949,16.386 41.002,15.275 39.129,16.386 39.583,14.191 37.948,12.752 40.176,12.506 "/>
    <polygon class="fil3" points="75.739,10.507 76.661,12.549 78.829,12.752 77.172,14.261 77.649,16.386 75.702,15.275 73.829,16.386 74.283,14.191 72.648,12.752 74.876,12.506 "/>
   </g>
   <g>
    <path class="fil4" d="M32.695 71.866l-6.146 0 1.674 2.9 -1.677 2.905 4.594 0 1.555 -5.805zm0.363 2.185l0.585 -2.185 -1.907 -3.303 5.683 0 0 5.488 -4.361 0z"/>
    <path class="fil4" d="M84.082 71.866l6.146 0 -1.674 2.9 1.677 2.905 -4.593 0 -1.556 -5.805zm-0.363 2.185l-0.585 -2.185 1.908 -3.303 -5.683 0 0 5.488 4.36 0z"/>
   </g>
   <path class="fil1" d="M92.136 15.966c0.231,0.281 0.191,0.698 -0.091,0.93 -0.282,0.232 -0.698,0.191 -0.93,-0.091 -3.956,-4.815 -8.955,-8.743 -14.65,-11.437 -5.479,-2.592 -11.607,-4.041 -18.076,-4.041 -6.469,0 -12.597,1.449 -18.076,4.041 -5.696,2.694 -10.694,6.622 -14.65,11.437 -0.232,0.282 -0.649,0.323 -0.93,0.091 -0.282,-0.232 -0.323,-0.649 -0.091,-0.93 4.08,-4.967 9.234,-9.017 15.106,-11.794 5.655,-2.676 11.974,-4.172 18.641,-4.172 6.666,0 12.986,1.496 18.641,4.172 5.872,2.777 11.026,6.827 15.106,11.794zm-53.794 66.489c-0.325,-0.167 -0.453,-0.566 -0.285,-0.891 0.167,-0.325 0.566,-0.452 0.891,-0.285 2.956,1.531 6.114,2.724 9.421,3.527 3.206,0.778 6.562,1.19 10.02,1.19 3.458,0 6.813,-0.412 10.019,-1.19 3.308,-0.803 6.466,-1.996 9.422,-3.527 0.324,-0.167 0.724,-0.04 0.891,0.285 0.167,0.325 0.04,0.724 -0.285,0.891 -3.045,1.577 -6.302,2.807 -9.717,3.636 -3.317,0.805 -6.777,1.232 -10.33,1.232 -3.553,0 -7.013,-0.427 -10.331,-1.232 -3.415,-0.829 -6.671,-2.059 -9.716,-3.636z"/>
  </g>
 </g>
</svg>
