<?xml version="1.0" encoding="UTF-8"?>
<!DOCTYPE svg PUBLIC "-//W3C//DTD SVG 1.0//EN" "http://www.w3.org/TR/2001/REC-SVG-20010904/DTD/svg10.dtd">
<!-- Creator: CorelDRAW 2018 (64 Bit Versão de avaliação) -->
<svg xmlns="http://www.w3.org/2000/svg" xml:space="preserve" width="245px" height="62px" version="1.0" style="shape-rendering:geometricPrecision; text-rendering:geometricPrecision; image-rendering:optimizeQuality; fill-rule:evenodd; clip-rule:evenodd"
viewBox="0 0 141.19 35.825"
 xmlns:xlink="http://www.w3.org/1999/xlink">
 <defs>
  <style type="text/css">
   <![CDATA[
    .fil1 {fill:black}
    .fil0 {fill:black;fill-rule:nonzero}
   ]]>
  </style>
 </defs>
 <g id="Camada_x0020_1">
  <metadata id="CorelCorpID_0Corel-Layer"/>
  <g id="_2211485691520">
   <path class="fil0" d="M46.873 2.391l-5.462 0 0 11.95 3.38 0 0 -3.124 2.082 0c3.261,0 5.309,-1.69 5.309,-4.405 0,-2.731 -2.048,-4.421 -5.309,-4.421zm-0.205 6.163l-1.877 0 0 -3.5 1.877 0c1.4,0 2.1,0.649 2.1,1.758 0,1.093 -0.7,1.742 -2.1,1.742zm7.17 5.787l3.244 0 0 -12.667 -3.244 0 0 12.667zm9.287 -9.406c-1.451,0 -3.022,0.375 -4.08,1.075l1.092 2.202c0.632,-0.495 1.622,-0.802 2.51,-0.802 1.28,0 1.912,0.529 1.963,1.468l-1.844 0c-2.868,0 -4.114,1.058 -4.114,2.765 0,1.605 1.229,2.851 3.449,2.851 1.348,0 2.27,-0.461 2.731,-1.348l0 1.195 3.021 0 0 -5.139c0,-2.936 -1.724,-4.267 -4.728,-4.267zm-0.12 7.511c-0.768,0 -1.212,-0.393 -1.212,-0.939 0,-0.564 0.376,-0.939 1.417,-0.939l1.4 0 0 0.802c-0.256,0.734 -0.888,1.076 -1.605,1.076zm12.923 -7.511c-1.161,0 -2.202,0.392 -2.936,1.16l0 -1.007 -3.09 0 0 9.253 3.244 0 0 -4.473c0,-1.536 0.802,-2.185 1.843,-2.185 0.939,0 1.519,0.563 1.519,1.895l0 4.763 3.244 0 0 -5.292c0,-2.868 -1.656,-4.114 -3.824,-4.114zm10.635 9.559c3.056,0 5.224,-1.997 5.224,-4.797 0,-2.782 -2.168,-4.762 -5.224,-4.762 -3.021,0 -5.223,1.98 -5.223,4.762 0,2.8 2.202,4.797 5.223,4.797zm0 -2.578c-1.092,0 -1.946,-0.802 -1.946,-2.219 0,-1.4 0.854,-2.185 1.946,-2.185 1.11,0 1.946,0.785 1.946,2.185 0,1.417 -0.836,2.219 -1.946,2.219zm-40.953 20.682c3.551,0 5.292,-1.775 5.292,-3.852 0,-4.404 -6.777,-3.036 -6.777,-4.868 0,-0.601 0.512,-1.078 1.929,-1.078 1.041,0 2.168,0.307 3.312,0.924l1.041 -2.512c-1.178,-0.683 -2.783,-1.041 -4.336,-1.041 -3.551,0 -5.292,1.741 -5.292,3.878 0,4.441 6.794,3.061 6.794,4.95 0,0.58 -0.546,0.97 -1.946,0.97 -1.383,0 -2.885,-0.475 -3.943,-1.172l-1.11 2.487c1.127,0.785 3.073,1.314 5.036,1.314zm12.513 -9.645c-1.212,0 -2.117,0.342 -2.731,1.076l0 -0.922 -3.09 0 0 12.564 3.243 0 0 -4.131c0.632,0.649 1.502,0.973 2.578,0.973 2.509,0 4.541,-1.844 4.541,-4.78 0,-2.936 -2.032,-4.78 -4.541,-4.78zm-0.683 6.982c-1.093,0 -1.946,-0.802 -1.946,-2.202 0,-1.4 0.853,-2.202 1.946,-2.202 1.093,0 1.946,0.802 1.946,2.202 0,1.4 -0.853,2.202 -1.946,2.202zm16.183 -2.185c0,-3.056 -2.219,-4.797 -4.95,-4.797 -2.919,0 -5.087,1.98 -5.087,4.763 0,2.765 2.133,4.797 5.428,4.797 1.758,0 3.056,-0.512 3.943,-1.502l-1.707 -1.776c-0.631,0.546 -1.229,0.803 -2.133,0.803 -1.195,0 -1.998,-0.547 -2.271,-1.486l6.726 0c0.017,-0.256 0.051,-0.563 0.051,-0.802zm-4.933 -2.492c1.007,0 1.724,0.614 1.895,1.587l-3.79 0c0.188,-0.973 0.888,-1.587 1.895,-1.587zm15.893 2.492c0,-3.056 -2.22,-4.797 -4.951,-4.797 -2.919,0 -5.087,1.98 -5.087,4.763 0,2.765 2.134,4.797 5.429,4.797 1.758,0 3.055,-0.512 3.943,-1.502l-1.707 -1.776c-0.632,0.546 -1.229,0.803 -2.134,0.803 -1.195,0 -1.997,-0.547 -2.27,-1.486l6.726 0c0.017,-0.256 0.051,-0.563 0.051,-0.802zm-4.934 -2.492c1.007,0 1.724,0.614 1.895,1.587l-3.79 0c0.188,-0.973 0.888,-1.587 1.895,-1.587zm13.025 -5.565l0 4.216c-0.614,-0.649 -1.485,-0.956 -2.56,-0.956 -2.527,0 -4.558,1.827 -4.558,4.763 0,2.953 2.031,4.797 4.558,4.797 1.195,0 2.099,-0.342 2.714,-1.076l0 0.922 3.09 0 0 -12.666 -3.244 0zm-1.877 10.242c-1.11,0 -1.947,-0.802 -1.947,-2.219 0,-1.4 0.837,-2.185 1.947,-2.185 1.092,0 1.929,0.785 1.929,2.185 0,1.417 -0.837,2.219 -1.929,2.219zm17.787 -9.525l-5.462 0 0 11.949 3.38 0 0 -3.124 2.082 0c3.261,0 5.31,-1.69 5.31,-4.404 0,-2.731 -2.049,-4.421 -5.31,-4.421zm-0.204 6.162l-1.878 0 0 -3.499 1.878 0c1.399,0 2.099,0.648 2.099,1.758 0,1.092 -0.7,1.741 -2.099,1.741zm7.169 5.787l3.244 0 0 -12.666 -3.244 0 0 12.666zm9.287 -9.406c-1.451,0 -3.021,0.376 -4.08,1.076l1.093 2.202c0.631,-0.495 1.621,-0.803 2.509,-0.803 1.28,0 1.912,0.53 1.963,1.468l-1.843 0c-2.868,0 -4.115,1.059 -4.115,2.766 0,1.605 1.23,2.851 3.449,2.851 1.348,0 2.27,-0.461 2.731,-1.349l0 1.195 3.022 0 0 -5.138c0,-2.936 -1.725,-4.268 -4.729,-4.268zm-0.119 7.511c-0.769,0 -1.212,-0.392 -1.212,-0.939 0,-0.563 0.375,-0.938 1.416,-0.938l1.4 0 0 0.802c-0.256,0.734 -0.887,1.075 -1.604,1.075zm13.383 -7.357l-2.287 5.65 -2.271 -5.65 -3.329 0 3.961 9.372c-0.273,0.546 -0.632,0.785 -1.263,0.785 -0.513,0 -1.059,-0.205 -1.434,-0.546l-1.127 2.27c0.615,0.512 1.707,0.837 2.68,0.837 1.827,0 3.192,-0.7 4.165,-3.09l3.995 -9.628 -3.09 0z"/>
   <path class="fil1" d="M20.867 31.658l10.791 -10.791c3.302,-3.301 3.302,-8.703 0,-12.004l-6.386 -6.387c-3.302,-3.301 -8.703,-3.301 -12.005,0l-10.791 10.791c-3.301,3.302 -3.301,8.703 0,12.005l6.386 6.386c3.302,3.302 8.704,3.302 12.005,0zm3.853 -11.004l-4.481 2.586 -4.327 2.499c-3.716,2.145 -6.38,-0.309 -6.38,-3.507l0 -5.174 0 -4.996c0,-4.291 3.457,-5.372 6.227,-3.772l4.48 2.586 4.327 2.499c3.716,2.145 2.923,5.679 0.154,7.279z"/>
  </g>
 </g>
</svg>
