<?xml version="1.0" encoding="UTF-8"?>
<!DOCTYPE svg PUBLIC "-//W3C//DTD SVG 1.0//EN" "http://www.w3.org/TR/2001/REC-SVG-20010904/DTD/svg10.dtd">
<!-- Creator: CorelDRAW 2018 (64 Bit Versão de avaliação) -->
<svg xmlns="http://www.w3.org/2000/svg" xml:space="preserve" width="30px" height="30px" version="1.0" style="shape-rendering:geometricPrecision; text-rendering:geometricPrecision; image-rendering:optimizeQuality; fill-rule:evenodd; clip-rule:evenodd"
viewBox="0 0 1.021 1.021"
 xmlns:xlink="http://www.w3.org/1999/xlink">
 <defs>
  <style type="text/css">
   <![CDATA[
    .fil0 {fill:#6DA544}
    .fil1 {fill:#D80027}
    .fil3 {fill:#F0F0F0}
    .fil2 {fill:#FFDA44}
   ]]>
  </style>
 </defs>
 <g id="Camada_x0020_1">
  <metadata id="CorelCorpID_0Corel-Layer"/>
  <g id="_2211590163600">
   <path class="fil0" d="M0 0.51c0,0.22 0.138,0.407 0.333,0.479l0.044 -0.479 -0.044 -0.478c-0.195,0.072 -0.333,0.259 -0.333,0.478z"/>
   <path class="fil1" d="M1.021 0.51c0,-0.282 -0.229,-0.51 -0.511,-0.51 -0.062,0 -0.122,0.011 -0.177,0.032l0 0.957c0.055,0.02 0.115,0.032 0.177,0.032 0.282,0 0.511,-0.229 0.511,-0.511z"/>
   <circle class="fil2" cx="0.333" cy="0.51" r="0.177"/>
   <path class="fil1" d="M0.233 0.422l0 0.11c0,0.056 0.045,0.1 0.1,0.1 0.055,0 0.1,-0.044 0.1,-0.1l0 -0.11 -0.2 0z"/>
   <path class="fil3" d="M0.333 0.566c-0.019,0 -0.033,-0.015 -0.033,-0.034l0 -0.044 0.066 0 0 0.044c0,0.019 -0.015,0.034 -0.033,0.034z"/>
  </g>
 </g>
</svg>
