<?xml version="1.0" encoding="UTF-8"?>
<!DOCTYPE svg PUBLIC "-//W3C//DTD SVG 1.0//EN" "http://www.w3.org/TR/2001/REC-SVG-20010904/DTD/svg10.dtd">
<!-- Creator: CorelDRAW 2018 (64 Bit Versão de avaliação) -->
<svg xmlns="http://www.w3.org/2000/svg" xml:space="preserve" width="30px" height="30px" version="1.0" style="shape-rendering:geometricPrecision; text-rendering:geometricPrecision; image-rendering:optimizeQuality; fill-rule:evenodd; clip-rule:evenodd"
viewBox="0 0 0.913 0.913"
 xmlns:xlink="http://www.w3.org/1999/xlink">
 <defs>
  <style type="text/css">
   <![CDATA[
    .fil2 {fill:#0052B4}
    .fil1 {fill:#D80027}
    .fil0 {fill:#F0F0F0}
   ]]>
  </style>
 </defs>
 <g id="Camada_x0020_1">
  <metadata id="CorelCorpID_0Corel-Layer"/>
  <g id="_2211441483968">
   <circle class="fil0" cx="0.456" cy="0.456" r="0.456"/>
   <path class="fil1" d="M0.437 0.456l0.476 0c0,-0.041 -0.006,-0.081 -0.016,-0.119l-0.46 0 0 0.119z"/>
   <path class="fil1" d="M0.437 0.218l0.409 0c-0.028,-0.045 -0.064,-0.086 -0.105,-0.119l-0.304 0 0 0.119z"/>
   <path class="fil1" d="M0.456 0.913c0.108,0 0.207,-0.037 0.285,-0.099l-0.569 0c0.078,0.062 0.177,0.099 0.284,0.099z"/>
   <path class="fil1" d="M0.067 0.695l0.779 0c0.022,-0.037 0.04,-0.077 0.051,-0.119l-0.881 0c0.011,0.042 0.029,0.082 0.051,0.119z"/>
   <path class="fil2" d="M0.211 0.071l0.042 0 -0.039 0.028 0.015 0.046 -0.039 -0.028 -0.038 0.028 0.013 -0.039c-0.035,0.028 -0.064,0.061 -0.089,0.098l0.013 0 -0.024 0.018c-0.004,0.007 -0.008,0.013 -0.011,0.02l0.011 0.036 -0.022 -0.016c-0.005,0.011 -0.01,0.023 -0.014,0.035l0.012 0.04 0.048 0 -0.038 0.028 0.014 0.046 -0.038 -0.028 -0.023 0.017c-0.003,0.018 -0.004,0.037 -0.004,0.056l0.456 0c0,-0.252 0,-0.281 0,-0.456 -0.09,0 -0.174,0.026 -0.245,0.071zm0.018 0.34l-0.039 -0.028 -0.038 0.028 0.015 -0.046 -0.039 -0.028 0.048 0 0.014 -0.045 0.015 0.045 0.048 0 -0.039 0.028 0.015 0.046zm-0.015 -0.179l0.015 0.046 -0.039 -0.028 -0.038 0.028 0.015 -0.046 -0.039 -0.028 0.048 0 0.014 -0.045 0.015 0.045 0.048 0 -0.039 0.028zm0.179 0.179l-0.039 -0.028 -0.039 0.028 0.015 -0.046 -0.038 -0.028 0.047 0 0.015 -0.045 0.015 0.045 0.048 0 -0.039 0.028 0.015 0.046zm-0.015 -0.179l0.015 0.046 -0.039 -0.028 -0.039 0.028 0.015 -0.046 -0.038 -0.028 0.047 0 0.015 -0.045 0.015 0.045 0.048 0 -0.039 0.028zm0 -0.133l0.015 0.046 -0.039 -0.028 -0.039 0.028 0.015 -0.046 -0.038 -0.028 0.047 0 0.015 -0.045 0.015 0.045 0.048 0 -0.039 0.028z"/>
  </g>
 </g>
</svg>
