<?xml version="1.0" encoding="UTF-8"?>
<!DOCTYPE svg PUBLIC "-//W3C//DTD SVG 1.0//EN" "http://www.w3.org/TR/2001/REC-SVG-20010904/DTD/svg10.dtd">
<!-- Creator: CorelDRAW 2018 (64 Bit Versão de avaliação) -->
<svg xmlns="http://www.w3.org/2000/svg" xml:space="preserve" width="30px" height="30px" version="1.0" style="shape-rendering:geometricPrecision; text-rendering:geometricPrecision; image-rendering:optimizeQuality; fill-rule:evenodd; clip-rule:evenodd"
viewBox="0 0 1.157 1.157"
 xmlns:xlink="http://www.w3.org/1999/xlink">
 <defs>
  <style type="text/css">
   <![CDATA[
    .fil3 {fill:#0052B4}
    .fil0 {fill:#6DA544}
    .fil2 {fill:#F0F0F0}
    .fil1 {fill:#FFDA44}
   ]]>
  </style>
 </defs>
 <g id="Camada_x0020_1">
  <metadata id="CorelCorpID_0Corel-Layer"/>
  <g id="_2211488220656">
   <circle class="fil0" cx="0.578" cy="0.578" r="0.578"/>
   <polygon class="fil1" points="0.579,0.226 1.056,0.579 0.579,0.931 0.101,0.579 "/>
   <circle class="fil2" cx="0.578" cy="0.578" r="0.201"/>
   <path class="fil3" d="M0.478 0.566c-0.035,0 -0.069,0.005 -0.101,0.015 0.002,0.11 0.091,0.199 0.202,0.199 0.068,0 0.128,-0.034 0.164,-0.086 -0.062,-0.078 -0.158,-0.128 -0.265,-0.128z"/>
   <path class="fil3" d="M0.776 0.617c0.002,-0.012 0.004,-0.025 0.004,-0.038 0,-0.112 -0.09,-0.202 -0.201,-0.202 -0.083,0 -0.155,0.05 -0.185,0.122 0.027,-0.006 0.055,-0.009 0.084,-0.009 0.117,0 0.222,0.049 0.298,0.127z"/>
  </g>
 </g>
</svg>
