<?xml version="1.0" encoding="UTF-8"?>
<!DOCTYPE svg PUBLIC "-//W3C//DTD SVG 1.0//EN" "http://www.w3.org/TR/2001/REC-SVG-20010904/DTD/svg10.dtd">
<!-- Creator: CorelDRAW 2018 (64 Bit Versão de avaliação) -->
<svg xmlns="http://www.w3.org/2000/svg" xml:space="preserve" width="80px" height="80px" version="1.0" style="shape-rendering:geometricPrecision; text-rendering:geometricPrecision; image-rendering:optimizeQuality; fill-rule:evenodd; clip-rule:evenodd"
viewBox="0 0 80.396 80.396"
 xmlns:xlink="http://www.w3.org/1999/xlink">
 <defs>
  <style type="text/css">
   <![CDATA[
    .fil0 {fill:#FF9E00}
    .fil1 {fill:white;fill-rule:nonzero}
   ]]>
  </style>
 </defs>
 <g id="Camada_x0020_1">
  <metadata id="CorelCorpID_0Corel-Layer"/>
  <g id="_2474707550240">
   <path class="fil0" d="M40.414 0c4.906,-0.032 6.113,4.562 9.274,5.001 3.16,0.439 6.531,-1.932 10.796,0.493 4.265,2.425 3.013,7.007 5.531,8.968 2.518,1.96 6.622,1.592 9.103,5.824 2.481,4.233 -0.894,7.576 0.306,10.532 1.2,2.957 4.94,4.69 4.972,9.596 0.032,4.906 -4.562,6.113 -5.001,9.274 -0.439,3.16 1.933,6.531 -0.493,10.796 -2.425,4.265 -7.007,3.013 -8.968,5.531 -1.96,2.518 -1.591,6.622 -5.824,9.103 -4.233,2.481 -7.576,-0.894 -10.532,0.306 -2.957,1.2 -4.69,4.94 -9.596,4.972 -4.906,0.032 -6.113,-4.562 -9.274,-5.001 -3.16,-0.439 -6.531,1.933 -10.796,-0.493 -4.265,-2.425 -3.013,-7.007 -5.531,-8.968 -2.517,-1.96 -6.622,-1.591 -9.103,-5.824 -2.481,-4.233 0.894,-7.576 -0.306,-10.532 -1.2,-2.957 -4.94,-4.69 -4.972,-9.596 -0.032,-4.906 4.562,-6.113 5.001,-9.274 0.439,-3.16 -1.932,-6.531 0.493,-10.796 2.425,-4.265 7.007,-3.013 8.968,-5.531 1.96,-2.517 1.592,-6.622 5.824,-9.103 4.233,-2.481 7.576,0.894 10.532,-0.306 2.957,-1.2 4.69,-4.94 9.596,-4.972z"/>
   <path class="fil1" d="M24.469 63.064c-1.889,0 -3.592,-0.407 -5.109,-1.222 -1.517,-0.815 -2.704,-1.937 -3.562,-3.367 -0.858,-1.43 -1.287,-3.038 -1.287,-4.823 0,-1.786 0.429,-3.393 1.287,-4.823 0.858,-1.431 2.045,-2.553 3.562,-3.368 1.517,-0.814 3.22,-1.222 5.109,-1.222 1.89,0 3.588,0.408 5.096,1.222 1.508,0.815 2.696,1.937 3.563,3.368 0.866,1.43 1.299,3.037 1.299,4.823 0,1.785 -0.433,3.393 -1.299,4.823 -0.867,1.43 -2.055,2.552 -3.563,3.367 -1.508,0.815 -3.206,1.222 -5.096,1.222zm0 -3.588c1.075,0 2.045,-0.247 2.912,-0.741 0.867,-0.494 1.547,-1.183 2.041,-2.067 0.494,-0.884 0.741,-1.89 0.741,-3.016 0,-1.127 -0.247,-2.132 -0.741,-3.016 -0.494,-0.884 -1.174,-1.574 -2.041,-2.068 -0.867,-0.494 -1.837,-0.741 -2.912,-0.741 -1.075,0 -2.045,0.247 -2.912,0.741 -0.867,0.494 -1.547,1.184 -2.041,2.068 -0.494,0.884 -0.741,1.889 -0.741,3.016 0,1.126 0.247,2.132 0.741,3.016 0.494,0.884 1.174,1.573 2.041,2.067 0.867,0.494 1.837,0.741 2.912,0.741zm16.301 -11.544l0 4.81 8.424 0 0 3.38 -8.424 0 0 6.63 -4.212 0 0 -18.201 13.755 0 0 3.381 -9.543 0zm15.573 0l0 4.81 8.425 0 0 3.38 -8.425 0 0 6.63 -4.212 0 0 -18.201 13.755 0 0 3.381 -9.543 0z"/>
   <g>
    <path class="fil1" d="M16.191 28.395c3.362,0 5.843,0.67 7.445,2.01 1.601,1.34 2.402,3.135 2.402,5.384 0,1.453 -0.364,2.776 -1.091,3.969 -0.726,1.192 -1.834,2.146 -3.322,2.862 -1.487,0.715 -3.321,1.073 -5.502,1.073 -1.681,0 -3.334,-0.221 -4.958,-0.664 -1.624,-0.443 -3.004,-1.073 -4.139,-1.891l2.18 -4.225c0.909,0.681 1.954,1.21 3.135,1.584 1.181,0.375 2.396,0.562 3.646,0.562 1.385,0 2.476,-0.272 3.27,-0.817 0.795,-0.546 1.193,-1.306 1.193,-2.283 0,-1.022 -0.415,-1.795 -1.244,-2.317 -0.829,-0.522 -2.265,-0.784 -4.31,-0.784l-6.098 0 1.226 -13.424 14.549 0 0 4.429 -9.949 0 -0.375 4.532 1.942 0zm20.952 15.298c-1.976,0 -3.736,-0.488 -5.281,-1.465 -1.544,-0.977 -2.754,-2.391 -3.628,-4.242 -0.875,-1.851 -1.312,-4.06 -1.312,-6.627 0,-2.567 0.437,-4.776 1.312,-6.627 0.874,-1.851 2.084,-3.265 3.628,-4.242 1.545,-0.976 3.305,-1.465 5.281,-1.465 1.977,0 3.737,0.489 5.282,1.465 1.544,0.977 2.754,2.391 3.628,4.242 0.875,1.851 1.312,4.06 1.312,6.627 0,2.567 -0.437,4.776 -1.312,6.627 -0.874,1.851 -2.084,3.265 -3.628,4.242 -1.545,0.977 -3.305,1.465 -5.282,1.465zm0 -4.668c1.454,0 2.595,-0.624 3.425,-1.874 0.829,-1.249 1.243,-3.18 1.243,-5.792 0,-2.612 -0.414,-4.543 -1.243,-5.792 -0.83,-1.249 -1.971,-1.874 -3.425,-1.874 -1.431,0 -2.561,0.625 -3.39,1.874 -0.829,1.249 -1.243,3.18 -1.243,5.792 0,2.612 0.414,4.543 1.243,5.792 0.829,1.25 1.959,1.874 3.39,1.874z"/>
    <path class="fil1" d="M53.52 32.713c3.166,0 5.318,-2.406 5.318,-6.079 0,-3.673 -2.152,-6.079 -5.318,-6.079 -3.166,0 -5.288,2.438 -5.288,6.079 0,3.641 2.122,6.079 5.288,6.079zm-1.837 10.226l3.103 0 15.134 -22.162 -3.103 0 -15.134 22.162zm1.837 -12.443c-1.647,0 -2.723,-1.424 -2.723,-3.862 0,-2.438 1.076,-3.863 2.723,-3.863 1.709,0 2.722,1.393 2.722,3.863 0,2.469 -1.013,3.862 -2.722,3.862zm14.532 12.665c3.166,0 5.319,-2.438 5.319,-6.079 0,-3.641 -2.153,-6.079 -5.319,-6.079 -3.167,0 -5.288,2.438 -5.288,6.079 0,3.641 2.121,6.079 5.288,6.079zm0 -2.217c-1.678,0 -2.723,-1.393 -2.723,-3.862 0,-2.47 1.045,-3.863 2.723,-3.863 1.678,0 2.722,1.425 2.722,3.863 0,2.438 -1.044,3.862 -2.722,3.862z"/>
   </g>
  </g>
 </g>
</svg>
