<?xml version="1.0" encoding="UTF-8"?>
<!DOCTYPE svg PUBLIC "-//W3C//DTD SVG 1.0//EN" "http://www.w3.org/TR/2001/REC-SVG-20010904/DTD/svg10.dtd">
<!-- Creator: CorelDRAW 2018 (64 Bit Versão de avaliação) -->
<svg xmlns="http://www.w3.org/2000/svg" xml:space="preserve" width="80px" height="80px" version="1.0" style="shape-rendering:geometricPrecision; text-rendering:geometricPrecision; image-rendering:optimizeQuality; fill-rule:evenodd; clip-rule:evenodd"
viewBox="0 0 23.035 23.035"
 xmlns:xlink="http://www.w3.org/1999/xlink">
 <defs>
  <style type="text/css">
   <![CDATA[
    .fil0 {fill:#2E9805}
    .fil1 {fill:white;fill-rule:nonzero}
   ]]>
  </style>
 </defs>
 <g id="Camada_x0020_1">
  <metadata id="CorelCorpID_0Corel-Layer"/>
  <g id="_2474792800880">
   <path class="fil0" d="M11.579 0c1.406,-0.009 1.752,1.307 2.658,1.433 0.905,0.126 1.871,-0.554 3.093,0.141 1.222,0.695 0.863,2.008 1.585,2.57 0.721,0.561 1.897,0.456 2.608,1.668 0.711,1.213 -0.256,2.171 0.087,3.018 0.344,0.847 1.416,1.344 1.425,2.749 0.009,1.406 -1.307,1.752 -1.433,2.658 -0.126,0.905 0.554,1.871 -0.141,3.093 -0.695,1.222 -2.008,0.863 -2.57,1.585 -0.561,0.721 -0.456,1.897 -1.668,2.608 -1.213,0.711 -2.171,-0.256 -3.018,0.087 -0.847,0.344 -1.344,1.416 -2.749,1.425 -1.406,0.009 -1.752,-1.307 -2.657,-1.433 -0.906,-0.126 -1.872,0.554 -3.094,-0.141 -1.222,-0.695 -0.863,-2.008 -1.584,-2.57 -0.722,-0.561 -1.898,-0.456 -2.609,-1.668 -0.711,-1.213 0.256,-2.171 -0.087,-3.018 -0.344,-0.847 -1.416,-1.344 -1.425,-2.749 -0.009,-1.406 1.307,-1.752 1.433,-2.657 0.126,-0.906 -0.554,-1.872 0.141,-3.094 0.695,-1.222 2.008,-0.863 2.57,-1.584 0.561,-0.722 0.456,-1.898 1.668,-2.609 1.213,-0.711 2.171,0.256 3.018,-0.087 0.847,-0.344 1.344,-1.416 2.749,-1.425z"/>
   <path class="fil1" d="M7.011 18.069c-0.542,0 -1.03,-0.117 -1.464,-0.35 -0.435,-0.233 -0.775,-0.555 -1.021,-0.965 -0.246,-0.41 -0.369,-0.87 -0.369,-1.382 0,-0.511 0.123,-0.972 0.369,-1.382 0.246,-0.409 0.586,-0.731 1.021,-0.964 0.434,-0.234 0.922,-0.351 1.464,-0.351 0.541,0 1.028,0.117 1.46,0.351 0.432,0.233 0.772,0.555 1.021,0.964 0.248,0.41 0.372,0.871 0.372,1.382 0,0.512 -0.124,0.972 -0.372,1.382 -0.249,0.41 -0.589,0.732 -1.021,0.965 -0.432,0.233 -0.919,0.35 -1.46,0.35zm0 -1.028c0.308,0 0.586,-0.071 0.834,-0.212 0.248,-0.142 0.443,-0.339 0.585,-0.593 0.142,-0.253 0.212,-0.541 0.212,-0.864 0,-0.323 -0.07,-0.611 -0.212,-0.864 -0.142,-0.253 -0.337,-0.451 -0.585,-0.592 -0.248,-0.142 -0.526,-0.212 -0.834,-0.212 -0.308,0 -0.586,0.07 -0.835,0.212 -0.248,0.141 -0.443,0.339 -0.584,0.592 -0.142,0.253 -0.213,0.541 -0.213,0.864 0,0.323 0.071,0.611 0.213,0.864 0.141,0.254 0.336,0.451 0.584,0.593 0.249,0.141 0.527,0.212 0.835,0.212zm4.67 -3.308l0 1.379 2.414 0 0 0.968 -2.414 0 0 1.9 -1.206 0 0 -5.215 3.94 0 0 0.968 -2.734 0zm4.462 0l0 1.379 2.414 0 0 0.968 -2.414 0 0 1.9 -1.206 0 0 -5.215 3.941 0 0 0.968 -2.735 0z"/>
   <g>
    <path class="fil1" d="M5.674 8.116c0.436,0 0.833,0.088 1.191,0.264 0.358,0.176 0.641,0.424 0.849,0.747 0.208,0.322 0.313,0.694 0.313,1.117 0,0.456 -0.114,0.856 -0.342,1.201 -0.228,0.345 -0.539,0.61 -0.932,0.796 -0.394,0.185 -0.832,0.278 -1.313,0.278 -0.957,0 -1.706,-0.293 -2.246,-0.879 -0.54,-0.585 -0.81,-1.422 -0.81,-2.509 0,-0.774 0.146,-1.438 0.439,-1.991 0.293,-0.553 0.702,-0.973 1.225,-1.259 0.524,-0.287 1.131,-0.43 1.821,-0.43 0.365,0 0.714,0.041 1.05,0.122 0.335,0.081 0.619,0.197 0.854,0.347l-0.586 1.161c-0.338,-0.227 -0.765,-0.341 -1.279,-0.341 -0.579,0 -1.038,0.169 -1.376,0.507 -0.339,0.339 -0.521,0.83 -0.547,1.474 0.403,-0.403 0.966,-0.605 1.689,-0.605zm-0.322 3.222c0.338,0 0.613,-0.091 0.825,-0.274 0.211,-0.182 0.317,-0.429 0.317,-0.742 0,-0.312 -0.106,-0.561 -0.317,-0.746 -0.212,-0.186 -0.493,-0.279 -0.845,-0.279 -0.345,0 -0.628,0.096 -0.849,0.288 -0.221,0.192 -0.332,0.438 -0.332,0.737 0,0.3 0.107,0.544 0.322,0.733 0.215,0.188 0.508,0.283 0.879,0.283zm7.965 -0.225l0 1.289 -5.164 0 0 -1.025 2.636 -2.49c0.28,-0.266 0.468,-0.496 0.566,-0.688 0.098,-0.192 0.146,-0.382 0.146,-0.571 0,-0.273 -0.092,-0.483 -0.278,-0.63 -0.185,-0.146 -0.457,-0.219 -0.815,-0.219 -0.299,0 -0.569,0.057 -0.81,0.171 -0.241,0.114 -0.443,0.284 -0.605,0.512l-1.152 -0.742c0.266,-0.397 0.634,-0.708 1.103,-0.932 0.468,-0.225 1.005,-0.337 1.611,-0.337 0.507,0 0.951,0.083 1.332,0.249 0.381,0.166 0.677,0.4 0.888,0.703 0.212,0.303 0.318,0.659 0.318,1.069 0,0.371 -0.078,0.719 -0.235,1.044 -0.156,0.326 -0.458,0.697 -0.908,1.113l-1.571 1.484 2.938 0z"/>
    <path class="fil1" d="M14.963 9.373c0.908,0 1.524,-0.69 1.524,-1.742 0,-1.052 -0.616,-1.742 -1.524,-1.742 -0.907,0 -1.514,0.699 -1.514,1.742 0,1.043 0.607,1.742 1.514,1.742zm-0.526 2.93l0.889 0 4.336 -6.35 -0.889 0 -4.336 6.35zm0.526 -3.565c-0.471,0 -0.78,-0.408 -0.78,-1.107 0,-0.698 0.309,-1.107 0.78,-1.107 0.49,0 0.781,0.4 0.781,1.107 0,0.708 -0.291,1.107 -0.781,1.107zm4.164 3.628c0.907,0 1.524,-0.698 1.524,-1.741 0,-1.044 -0.617,-1.742 -1.524,-1.742 -0.907,0 -1.515,0.698 -1.515,1.742 0,1.043 0.608,1.741 1.515,1.741zm0 -0.635c-0.481,0 -0.78,-0.399 -0.78,-1.106 0,-0.708 0.299,-1.107 0.78,-1.107 0.481,0 0.78,0.408 0.78,1.107 0,0.698 -0.299,1.106 -0.78,1.106z"/>
   </g>
  </g>
 </g>
</svg>
